<svg width="23" height="25" viewBox="0 0 23 25" fill="white" xmlns="http://www.w3.org/2000/svg">
<path d="M21.7019 22.9503H21.0323C21.0812 20.7019 21.3958 18.4734 21.9709 16.3168L22.2677 15.2039C22.3454 14.9126 22.2506 14.5979 22.0314 14.4198C21.8124 14.2416 21.517 14.2392 21.2955 14.4135L20.8772 14.743C19.8356 15.5632 18.9651 16.5966 18.2989 17.7706C18.6975 14.5942 19.594 11.5018 20.9489 8.67114C21.0902 8.37593 21.0299 8.00991 20.804 7.79122C20.5781 7.57252 20.2474 7.56 20.009 7.76117C17.8389 9.59219 16.0506 12.0028 14.8374 14.7322C14.7417 14.9478 14.6499 15.1656 14.5612 15.385C15.1182 10.4026 16.4235 5.52171 18.4182 1.03359C18.5575 0.72029 18.4742 0.339563 18.2216 0.134772C17.969 -0.070019 17.6216 -0.0384504 17.4015 0.209241L17.3165 0.304899C14.894 3.03013 12.9424 6.16384 11.5017 9.63824C10.0605 6.16389 8.10883 3.02936 5.68708 0.304947L5.60201 0.209241C5.38184 -0.038498 5.03444 -0.0699714 4.78189 0.134867C4.5293 0.339658 4.446 0.720337 4.58525 1.03364C6.57999 5.5218 7.88536 10.4027 8.4423 15.3851C8.35367 15.1657 8.26183 14.9478 8.16605 14.7323C6.95295 12.0028 5.16467 9.59224 2.99458 7.76122C2.75617 7.56005 2.42545 7.57252 2.19952 7.79126C1.97364 8.00996 1.91337 8.37602 2.05469 8.67118C3.40953 11.5018 4.30604 14.5943 4.70465 17.7706C4.03846 16.5966 3.16794 15.5632 2.12638 14.743L1.70801 14.4135C1.48657 14.2392 1.19119 14.2416 0.972075 14.4198C0.752962 14.5979 0.658156 14.9126 0.735821 15.2039L1.0326 16.3168C1.60774 18.4734 1.9223 20.702 1.97122 22.9503H1.30161C0.950997 22.9503 0.666748 23.2701 0.666748 23.6645C0.666748 24.059 0.950997 24.3787 1.30161 24.3787H21.7019C22.0525 24.3787 22.3367 24.059 22.3367 23.6645C22.3367 23.2701 22.0525 22.9503 21.7019 22.9503ZM20.4939 16.9627C20.0486 18.921 19.803 20.9281 19.7613 22.9503H18.0802C18.2142 20.6829 19.0797 18.5553 20.4939 16.9627ZM18.5118 11.2177C17.3813 14.5049 16.7923 18.0207 16.7923 21.5527V22.9503H14.2623C14.3953 18.5892 15.9289 14.4149 18.5118 11.2177ZM15.6149 4.6824C14.9927 6.53428 14.4767 8.43168 14.0726 10.3579C13.7363 11.9602 13.4782 13.5835 13.2972 15.2177C12.9974 13.9354 12.6274 12.6706 12.188 11.4267C13.0858 9.0102 14.2323 6.75383 15.6149 4.6824ZM7.38483 4.67121C10.9089 9.92969 12.864 16.2692 12.9778 22.9503H10.0204V20.8841C10.0204 17.3444 9.65387 13.8029 8.93097 10.3579C8.52593 8.42768 8.00882 6.52671 7.38483 4.67121ZM4.49167 11.2177C7.07459 14.4149 8.60817 18.5892 8.74123 22.9503H6.21122V21.5527C6.21122 18.0208 5.62219 14.5049 4.49167 11.2177ZM2.50963 16.9628C3.92385 18.5554 4.78925 20.6829 4.92325 22.9503H3.24218C3.20053 20.9281 2.95488 18.921 2.50963 16.9628Z" fill="#FFFFFF"/>
</svg>
