<svg width="30" height="36" viewBox="0 0 30 36" fill="white" xmlns="http://www.w3.org/2000/svg">
<path d="M26.9205 11.5857L26.9206 11.5858C28.1598 12.6879 28.8 14.0801 28.8 15.4978C28.8 18.5535 25.7119 21.3508 21.4992 21.3508C21.1589 21.3508 20.8224 21.3317 20.4909 21.2952L19.9378 21.2343L19.5945 21.6722L16.4402 25.6957L16.1611 26.0517L16.2442 26.4963L17.6749 34.1513C17.6672 34.1518 17.6591 34.152 17.6507 34.152H12.1888C12.1804 34.152 12.1722 34.1518 12.1645 34.1513L13.6204 26.3623L13.7035 25.9176L13.4244 25.5616L10.3609 21.654L10.0114 21.2081L9.44921 21.2788C9.07322 21.3261 8.68967 21.3508 8.30081 21.3508C4.08811 21.3508 1 18.5535 1 15.4978C1 14.0821 1.63834 12.6919 2.87428 11.5905L2.87638 11.5887C2.88095 11.5848 2.88814 11.5787 2.89662 11.5712L3.65709 10.9015L2.97739 10.15C2.39373 9.50465 2.07504 8.73844 2.07504 7.9355C2.07504 5.99392 4.06527 4.10301 6.92837 4.10301C7.21238 4.10301 7.49197 4.12369 7.76646 4.1619L8.3401 4.24177L8.69484 3.78395C9.96197 2.1486 12.2396 1 14.9001 1C18.8893 1 21.8924 3.52611 22.1755 6.38965L22.2719 7.36534L23.2493 7.28817C23.3349 7.28142 23.4192 7.27785 23.5027 7.27785C25.0395 7.27785 25.9508 8.27802 25.9508 9.12463C25.9508 9.33372 25.9026 9.53818 25.8085 9.73503L25.4348 10.5169L26.1556 10.998C26.4289 11.1804 26.6848 11.3761 26.9205 11.5857ZM14.1979 24.6058L14.9849 25.6096L15.7719 24.6058L17.8732 21.9256L18.6174 20.9763L17.5466 20.4209C16.8098 20.0388 16.1634 19.5516 15.6356 18.9786L14.9001 18.1801L14.1646 18.9786C13.662 19.5241 13.0524 19.992 12.3599 20.3652L11.3149 20.9283L12.0472 21.8625L14.1979 24.6058Z" stroke="#FFFFFF" stroke-width="2"/>
</svg>
