<svg width="25" height="25" viewBox="0 0 25 25" fill="white" xmlns="http://www.w3.org/2000/svg">
<path d="M13.1078 11.6614C13.3579 11.6902 13.6341 11.6902 13.8843 11.6902C20.6441 11.6902 24.0492 5.51776 24.9496 1.97533C25.0506 1.57452 24.9993 1.14579 24.7997 0.803522C24.5992 0.460357 24.2994 0.231581 23.9237 0.174837C16.0876 -1.19692 12.1064 5.833 11.105 9.74742C11.0805 9.83299 11.0552 9.91765 11.0308 10.0041C10.5541 10.7184 9.95439 11.7181 9.20313 13.0899C9.10212 12.6612 8.97744 12.2901 8.85196 12.0037C8.87722 5.28898 4.07057 2.48872 1.49245 1.97533C1.14208 1.88886 0.766446 2.00325 0.491037 2.26085C0.214838 2.51754 0.039649 2.88953 0.0151858 3.31826C-0.285476 9.68978 3.94589 12.6612 6.72366 13.5475C7.04957 14.6328 7.22476 16.9764 5.52338 21.1763C5.3979 21.5195 5.04674 22.4337 4.84629 23.0336C4.59614 23.7757 4.89759 24.6053 5.54784 24.8908C6.24859 25.2051 6.9241 24.8052 7.17504 24.1198C7.4252 23.4056 7.70061 22.6913 7.95156 22.0338C8.77779 20.49 9.97885 20.1766 10.5802 20.1198C12.583 21.6618 14.5858 22.2626 16.4135 22.2626C19.8676 22.2626 22.7716 20.1766 24.1984 18.4896C24.4485 18.204 24.574 17.805 24.5495 17.3763C24.5243 16.9764 24.3491 16.5756 24.0492 16.3468C18.5907 11.6614 13.0581 14.6616 10.5297 17.2619C10.3797 17.2619 10.1793 17.2898 9.97886 17.3187C11.2809 14.5751 12.4323 12.69 13.1078 11.6614ZM2.61856 5.40427C3.94589 6.11852 5.69778 7.54702 6.22334 10.2896C4.87155 9.57539 3.09362 8.14689 2.61856 5.40427ZM21.1444 17.633C19.5424 18.8616 16.5887 20.3765 13.1835 18.5193C14.8108 17.2619 17.7905 15.6902 21.1444 17.633ZM21.9209 2.83279C20.618 6.68956 16.6637 8.74675 14.1605 8.80349C14.4848 8.06042 17.089 2.7175 21.9209 2.83279Z" fill="#FFFFFF"/>
</svg>
