<?xml version="1.0" encoding="utf-8"?>
<!-- Generator: Adobe Illustrator 25.4.1, SVG Export Plug-In . SVG Version: 6.00 Build 0)  -->
<svg version="1.1" id="Layer_1" xmlns="http://www.w3.org/2000/svg" xmlns:xlink="http://www.w3.org/1999/xlink" x="0px" y="0px"
	 viewBox="0 0 205.8 229.4" style="enable-background:new 0 0 205.8 229.4;" xml:space="preserve">
<style type="text/css">
	.st0{fill:#FCEE21;}
	.st1{fill:#A1D8E5;}
	.st2{fill:#F9F9F9;}
</style>
<ellipse transform="matrix(0.9611 -0.2761 0.2761 0.9611 -27.194 31.8566)" class="st0" cx="99.5" cy="112.5" rx="50.5" ry="41.5"/>
<polygon class="st1" points="61.7,89.8 41.6,91.1 22.3,83 10.4,73 2.4,61.2 2.4,49 10.3,41.2 23,39 36.2,41.2 47.3,45.8 45,36.1 
	48.4,16 56.7,6.6 66.9,5.1 76.5,9.7 85.8,23.2 90.9,41.2 89.1,56.7 83.1,71.7 73.1,83 "/>
<path d="M204.7,11.9C200-0.1,184-3,173.5,3c-11.1,6.3-13.4,19.8-14.3,31.5c-0.4,5.5-0.5,11-0.4,16.5c-2.4,0-4.8,0.3-7,0.8
	c-1.4-4.9-3.1-9.8-4.9-14.5c-4.3-10.9-10.6-23-23.1-25.8c-11.7-2.5-26.2,5-27.1,17.9c-0.7,9.8,8,18.5,16.6,17.1
	c3.1,2.7,8.1,2.4,11.4-0.9c3.4-3.4,3.7-8.7,0.7-11.8c-3.1-3.1-8.3-2.8-11.8,0.6c-2,2-2.9,4.6-2.8,7.1c-3.8-0.1-7.4-3.1-8.7-7.5
	c-1.7-5.7,1.2-11.3,5.8-14.6c9-6.4,20.4-3.1,26.6,5.3c6,8.1,9.8,18.4,12.5,28.5c-8.6,3.3-15.6,10-19.3,18.4c-6.4-2.5-13.6-4-21.2-4
	c-5.9,0-11.9,0.9-17.8,2.5c-1.1,0.3-2.1,0.6-3.2,1c5.5-9.9,8.5-21.2,6.8-32.2c-2-11.6-7-24.4-16.9-31.9c-7.1-5.3-16.2-5.9-22.8,0.5
	c-8.5,8.2-10,22.2-9.1,33.3c0,0.4,0.1,0.8,0.1,1.2c-9.8-4.4-21.4-6.9-31.4-3.6C3.4,41.2-1.4,49,0.3,58c2.5,13.2,14.4,23.4,25.4,29.9
	c9.2,5,20.1,6,30.7,4.5c-0.2,0.3-0.5,0.6-0.7,1c-11.2,16.3-9.3,27.9-8.8,29.6c0.4,1.5-17,14-17,14s19.9,0,21,2
	c1.2,2.3,17.9,20.6,45.3,21.3c8.3,0.2,14.5-1.6,17.8-2.5c13.9-4,25.6-12.2,33.2-23.1c3.3-4.8,5.6-9.9,6.9-15
	c1.8,0.3,3.5,0.4,5.4,0.4c19.1,0,34.5-15.4,34.5-34.5c0-17.6-13.2-32.1-30.2-34.2c-0.6-10.9-0.2-22.5,3.3-32.5
	c3.5-9.9,13.3-16.5,23.8-13c5.5,1.8,9.9,6.3,9.9,12.2c0,4.6-2.5,8.5-6.1,9.7c-0.6-2.4-2.2-4.6-4.7-5.9c-4.3-2.2-9.4-0.9-11.4,3
	s-0.1,8.8,4.2,11c4.1,2.1,9,1,11.2-2.6C202.6,32,208.3,21.1,204.7,11.9z M47.3,32.6c0.5-10.1,5.5-29,19.4-25.6
	c13.5,3.3,19.6,21.3,21.9,33.1c1.8,11.5-2.5,23.7-9.1,33.6c-2.5,1.2-4.9,2.5-7.2,3.9C68.8,64.8,61.5,52,50.1,45.4
	c-0.7-0.4-1.5-0.8-2.2-1.2C47.3,40.5,47.1,36.6,47.3,32.6z M66.9,74.3c-2.3-1.8-4.4-3.8-6.5-5.8c-5.6-5.6-9.3-11.8-11.3-18.7
	c6.7,4.6,11.8,10.8,15.5,18.9C65.5,70.6,66.2,72.4,66.9,74.3z M27.8,84.4C17.5,78.4,3.2,67,4,53.5c0.8-15.6,22.4-13.2,32.4-9.9
	c2.8,0.9,5.4,2,7.9,3.3c1.8,9,6,16.7,12.6,23.6c3.4,3.6,7.4,7,11.5,9.9c-2.9,2.2-5.6,4.6-8.1,7.3C49.3,90,37.4,89.7,27.8,84.4z
	 M57.8,125.8c-2.4-8.4-1.1-17.4,3.6-25.8c-0.5,6.7,0.2,13.8,2.2,20.9c3.3,11.4,9.5,20.9,17.2,27.6C69.4,144.5,60.8,136.4,57.8,125.8
	z M112.8,149c-4.6,1.3-9.2,2-13.8,2.2c-11-6.5-20.2-18.1-24.4-32.8c-3.3-11.6-3-23.1,0.1-33.1c5-3.6,10.8-6.5,17.1-8.3
	c-5,11-6.1,24.7-2.2,38.4c4.3,14.9,13.7,26.7,24.9,33.1C113.9,148.7,113.4,148.9,112.8,149z M129.6,141.1
	c-9.5-6.7-17.3-17.4-21.1-30.6c-3.6-12.6-3-25.2,1-35.7c3.9,0.1,7.7,0.7,11.2,1.7c-2.3,9.2-2.2,19.6,0.7,30c3.2,11,9.1,20.3,16.6,27
	C135.6,136.3,132.8,138.8,129.6,141.1z"/>
<circle class="st0" cx="159.9" cy="85.3" r="32.2"/>
<polygon class="st2" points="167.7,125.7 159.2,113.8 155,100.9 155.7,89.8 159.4,86.9 174.6,90.2 184.3,91 198.8,89.2 201.6,89.1 
	199.9,99.1 193,104.5 186,104.1 184.9,109.3 184.5,115.9 178.1,113.1 174.6,113.6 173.2,117.6 171.4,123 "/>
<path d="M150.6,52.3c-18.6,4.7-29.9,23.5-25.3,42.1c4.2,16.8,19.9,27.6,36.6,26.2c1.8,2.7,3.8,5,6,6.9c0,0,5.8-1.9,6.6-9.9
	c0.2-1.7,0.9-2.5,2-2.8c3.9-1,11.9,5.4,11.9,5.4s-6.6-12.1,0.9-13.9c0.4-0.1,0.8-0.2,1.3-0.2c0.9-0.1,1.7-0.2,2.5-0.4
	c11.5-2.9,9.8-18.9,9.8-18.9c-3.5,0.8-6.5,1.3-9.3,1.8c0.3-3.6,0-7.2-0.9-10.9C188,58.9,169.2,47.6,150.6,52.3 M168.4,124.4
	c-8.5-8.3-13.7-24.7-11.8-32.6c0.5-2,1.3-3.2,2.5-3.5c0.5-0.1,1.2-0.1,1.9,0c2.2,0.4,4.2,0.9,6.2,1.4c8,1.9,15.6,3.8,33.3,0.2
	c-0.1,2.1-0.4,5.1-1.6,7.7c-17.7-4.5-34.1-7.9-32.2-4.2c3.5,6.8,14.9,11,18.7,12.3c-0.6,0.6-1,1.2-1.4,2c-0.7,1.7-0.8,3.6-0.5,5.5
	c-14.7-11.9-22.1-19.3-22.2-18c-0.7,10.2,7.2,20.9,10.3,24.7C170.7,122.3,169.4,123.7,168.4,124.4 M160.4,118.1
	c-14.9,0.6-28.8-9.2-32.6-24.3c-4.3-17.2,6.2-34.7,23.4-39s34.7,6.2,39,23.4c0.9,3.6,1.1,7.1,0.8,10.6c-14.7,1.8-20.4-1.4-29.6-3
	c-1.1-0.2-2.1-0.2-3,0C150.7,87.7,152.9,105.2,160.4,118.1"/>
<path d="M172,61.2c-5.6,0.9-10.5,4.2-13.4,9.1c-0.4,0.7,1.8,1.9,2.2,1.3c2.5-4.2,6.8-7.1,11.6-7.8C173.1,63.6,172.8,61,172,61.2"/>
<path d="M150.6,74.1c0.6,0.4,2-1.7,1.3-2.2c-4.8-2.9-10.7-3.5-16.1-1.7c-0.8,0.3,0.2,2.6,0.8,2.4C141.3,71,146.4,71.5,150.6,74.1"/>
<path d="M145,81.2c-4.1,1.8-7,4.9-8.3,7.6c-0.3,0.6,0.4,1.2,0.8,0.9c4.6-3.1,9.6-5.4,16.4-6.4c0.5-0.1,0.9-0.5,0.7-0.9
	c-3.7-7.3-14.3-7.7-19.5-2.5c-0.5,0.5,0,1.2,0.5,1.1C138.5,80.6,141.7,80.4,145,81.2"/>
<path d="M177.2,69.3c-7-2.1-16.2,3.3-16,11.4c0,0.5,0.5,0.7,1,0.5c6.4-2.3,11.9-2.6,17.5-2.1c0.5,0.1,0.9-0.8,0.3-1.2
	c-2.4-1.8-6.4-3.1-10.9-2.8c2.5-2.3,5.4-3.6,8.2-4.7C177.8,70.3,177.9,69.5,177.2,69.3"/>
<g>
	<path d="M77.3,208.9c-1.3,0.9-3.1,1.8-5.5,2.5c-1.9-4.3-3.4-8.8-4.6-13.5c-0.6,0.2-1.7,0.4-3.1,0.7c-2.4,0.5-4.6,0.7-6.4,0.8
		c0,4.5-0.5,8-1.6,10.6c-1.1,2.6-2.7,4.1-4.8,4.5c-1.1,0.2-2.1-0.1-3.1-1c-1-0.8-1.6-1.8-1.9-3c-0.2-0.9,0-2,0.5-3.2
		c0.5-1.2,1.2-1.9,2.1-2.1c0.4-0.1,0.9,0.1,1.5,0.5c0.5,0.4,0.9,0.8,1,1.3c0.1,0.5,0.1,1.1-0.2,1.8s-0.5,1-1,1.1
		c-0.1,0-0.2,0-0.4-0.1c0.4-0.4,0.5-0.9,0.4-1.4c-0.1-0.3-0.2-0.6-0.5-0.9c-0.3-0.3-0.6-0.4-0.9-0.3c-1.4,0.3-2,1.1-1.8,2.4
		c0.2,1.2,0.7,2,1.5,2.4c0.8,0.4,1.9,0.5,3.4,0.2c2.2-0.4,3.5-2,3.8-4.7c0.4-2.7,0.3-5.5-0.3-8.2c-5.4-0.2-8.3-1.4-8.8-3.8
		c-0.1-0.7,0-1.3,0.3-2c0.3-0.6,0.8-1,1.4-1.1l0.5-0.1c-0.4,0.7-0.5,1.5-0.4,2.4c0.2,1.2,0.9,2.1,2.2,2.7c1.2,0.7,2.8,1,4.7,1.1
		c-0.3-1.2-0.6-2.3-0.8-3.5c-0.5-2.4-0.5-4.4-0.2-6c0.3-1.7,1-3.2,2.2-4.7s2.6-2.7,4.2-3.6c1.6-0.9,3.4-1.6,5.2-1.9
		c1.1-0.2,1.8-0.3,1.9-0.3c-0.1,6.6,0.2,12.3,1,17.2c0.3-0.1,0.7-0.3,1.2-0.6l0.5,2c-0.6,0.2-1.1,0.3-1.3,0.4l0.3,1.7
		c0.9,4.9,2,8.5,3,10.9c1.1-0.3,2.6-0.9,4.3-2.1L77.3,208.9z M64.5,180c-2.6,0.4-4.6,1.7-6,3.9s-1.7,6.2-1,12.2
		c0.1,1,0.2,1.8,0.2,2.3c1.3-0.1,2.3-0.2,3.1-0.4c1.6-0.3,3.7-0.9,6-1.7c-0.4-1.8-0.7-3.2-0.9-4.3C65,187.8,64.6,183.8,64.5,180z"/>
	<path d="M91.8,205.4c-1.6,0.8-2.9,1.3-4,1.5c-2.6,0.5-4.9-0.2-7.1-2.1c-2.2-1.9-3.6-4.4-4.2-7.4c-0.5-2.8,0.1-5.4,1.8-8
		c1.7-2.6,4-4.2,6.7-4.7c1.3-0.2,2.6-0.1,4.1,0.4c1.5,0.5,2.3,1.3,2.5,2.4c0.2,0.9-0.1,1.9-0.8,2.9c-0.7,1-1.5,1.6-2.5,1.8
		c-0.9,0.2-1.7,0.1-2.5-0.2s-1.2-0.9-1.4-1.6c-0.1-0.7,0-1.3,0.3-1.8c0.4-0.5,0.9-0.8,1.7-0.9c0.4-0.1,0.9-0.1,1.3,0.1
		c0.4,0.2,0.6,0.4,0.7,0.8c0,0.2-0.1,0.5-0.3,0.7c-0.2,0.3-0.5,0.4-0.7,0.5l-0.3,0.1c0.1-0.5,0.1-0.9,0-1c-0.1-0.4-0.3-0.5-0.8-0.4
		c-0.3,0.1-0.5,0.3-0.6,0.6s-0.2,0.7-0.1,1c0.2,1.2,0.9,1.7,2.1,1.5c0.8-0.1,1.3-0.6,1.7-1.2c0.4-0.7,0.5-1.4,0.3-2.2
		c-0.2-1-0.7-1.7-1.7-2.2s-1.9-0.7-2.9-0.5c-2.1,0.4-3.6,1.8-4.6,4.3c-1,2.4-1.2,4.9-0.8,7.3c0.5,2.7,1.5,5,3,6.9
		c1.5,1.9,3.1,2.7,4.9,2.4c1.4-0.3,2.3-1.1,2.8-2.4L91.8,205.4z"/>
	<path d="M113.2,201.4c-0.8,0.2-1.3-0.1-1.5-0.9c-0.1-0.4,0.1-0.8,0.4-1.3c0.3-0.4,0.7-0.7,1.2-0.8c0.3-0.1,0.8,0,1.4,0.1
		c0.6,0.1,1,0.6,1.2,1.3c0.3,1.3,0.1,2.5-0.5,3.5c-0.6,1-1.4,1.7-2.4,1.9c-0.7,0.1-1.4-0.1-2.2-0.8c-0.8-0.7-1.3-1.4-1.5-2.3
		c-0.3-1.3-0.2-3,0.3-5.2c0.4-2.2,0.5-4,0.2-5.5c-1-5-3.3-7.1-7-6.4c-1.3,0.2-2.3,1.1-3.1,2.6c-0.8,1.5-1.2,2.6-1,3.3
		c1,4.7,2.1,9.4,3.2,14.1c0.8-0.2,2-0.5,3.4-0.7l0.1,1.3c-0.9,0.1-2,0.2-3.3,0.5c-2.1,0.4-3.8,0.8-5,1.3l-0.3-1.1
		c1.5-0.3,2.8-0.6,3.8-0.9c-0.5-2.9-1.9-8-4.3-15.5c-2.4-7.5-4.5-13.4-6.5-17.7c-0.6,0.2-1.7,0.5-3.2,0.9l-0.2-0.9
		c2.1-0.4,5.2-1.5,9.4-3.1l0.2,0.9c-1.1,0.4-2,0.8-2.7,1c0.6,1.7,1.3,4.3,2.2,7.8l2.6,10.2c0.4-1.6,1.1-3,2.2-4.1s2.2-1.8,3.5-2.1
		c2.1-0.4,3.9,0,5.5,1.2c1.6,1.2,2.6,2.7,2.9,4.4c0.4,2.3,0,5-1.4,8.2c-0.4,1-0.7,1.7-0.8,2.3c-0.1,0.6-0.1,1.3,0,2.1
		c0.2,1,0.7,1.7,1.6,1.9c0.9,0.3,1.6,0.4,2.1,0.2c0.5-0.1,0.9-0.3,1.1-0.7c0.2-0.4,0.3-0.9,0.2-1.4c-0.1-0.6-0.4-1-0.7-1.5
		s-0.7-0.6-1.1-0.6c-0.4,0.1-0.6,0.6-0.4,1.4C112.9,201,113,201.3,113.2,201.4z"/>
	<path d="M126.3,183.8c-0.1,0.4-0.4,0.6-0.7,0.7c-0.2,0-0.4,0-0.6-0.2c-0.2-0.2-0.3-0.4-0.4-0.7c-0.1-0.4,0-0.7,0.3-1
		c0.3-0.3,0.6-0.5,1-0.6c0.4-0.1,0.9,0,1.4,0.3c0.5,0.3,0.7,0.7,0.8,1.1c0.2,1,0.1,1.8-0.4,2.5c-0.4,0.7-1.1,1.1-2,1.3
		c-0.6,0.1-1.2-0.1-1.8-0.7c-0.6-0.6-1-1.3-1.1-2.3c-0.2-1.1,0.1-2.2,0.9-3.3s1.7-1.8,2.7-2c2.1-0.4,4.2,0.1,6.2,1.7
		c2.1,1.5,3.3,3.4,3.8,5.7c0.6,2.9,0.1,5.6-1.5,8.3s-3.4,4.2-5.7,4.7c-2.6,0.5-5.1-0.1-7.5-1.8c-2.5-1.7-4-3.9-4.5-6.8
		c-0.5-2.4,0-4.8,1.5-7.3c1.5-2.5,3.4-4.3,5.9-5.4l0.4,0.5c-1.9,0.7-3.3,2.2-4.2,4.4c-0.9,2.2-1.2,4.4-0.7,6.6
		c0.6,3.1,1.7,5.5,3.4,7.1s3.5,2.3,5.6,1.9c1.6-0.3,2.9-1.6,3.8-3.8c1-2.2,1.2-4.6,0.7-7.2c-0.5-2.5-1.5-4.5-3-5.9
		c-1.5-1.5-3.1-2-4.8-1.7c-0.9,0.2-1.6,0.7-2.1,1.5c-0.5,0.8-0.6,1.7-0.4,2.5c0.1,0.5,0.4,1,0.9,1.3c0.5,0.3,0.9,0.4,1.3,0.4
		c0.5-0.1,0.9-0.4,1.4-0.9c0.4-0.5,0.6-0.9,0.5-1.2c-0.1-0.8-0.6-1-1.5-0.9c-0.4,0.1-0.5,0.3-0.4,0.7
		C125.6,183.6,125.9,183.7,126.3,183.8z"/>
	<path d="M148.8,179.5c-0.1,0.4-0.4,0.6-0.7,0.7c-0.2,0-0.4,0-0.6-0.2c-0.2-0.2-0.3-0.4-0.4-0.7c-0.1-0.4,0-0.7,0.3-1
		c0.3-0.3,0.6-0.5,1-0.6c0.4-0.1,0.9,0,1.4,0.3c0.5,0.3,0.7,0.7,0.8,1.1c0.2,1,0.1,1.8-0.4,2.5c-0.4,0.7-1.1,1.1-2,1.3
		c-0.6,0.1-1.2-0.1-1.8-0.7c-0.6-0.6-1-1.3-1.1-2.3c-0.2-1.1,0.1-2.2,0.9-3.3s1.7-1.8,2.7-2c2.1-0.4,4.2,0.1,6.2,1.7
		c2.1,1.5,3.3,3.4,3.8,5.7c0.6,2.9,0.1,5.6-1.5,8.3c-1.5,2.7-3.4,4.2-5.7,4.7c-2.6,0.5-5.1-0.1-7.5-1.8c-2.5-1.7-4-3.9-4.5-6.8
		c-0.5-2.4,0-4.8,1.5-7.3c1.5-2.5,3.4-4.3,5.9-5.4l0.4,0.5c-1.9,0.7-3.3,2.2-4.2,4.4s-1.2,4.4-0.7,6.6c0.6,3.1,1.7,5.5,3.4,7.1
		s3.5,2.3,5.6,1.9c1.6-0.3,2.9-1.6,3.8-3.8c1-2.2,1.2-4.6,0.7-7.2c-0.5-2.5-1.5-4.5-3-5.9c-1.5-1.5-3.1-2-4.8-1.7
		c-0.9,0.2-1.6,0.7-2.1,1.5s-0.6,1.7-0.4,2.5c0.1,0.5,0.4,1,0.9,1.3c0.5,0.3,0.9,0.4,1.3,0.4c0.5-0.1,1-0.4,1.4-0.9
		c0.4-0.5,0.6-0.9,0.5-1.2c-0.1-0.8-0.6-1-1.5-0.9c-0.4,0.1-0.5,0.3-0.4,0.7C148.1,179.2,148.4,179.3,148.8,179.5z"/>
	<path d="M179.4,158.1c-0.1,3-0.1,6.8,0.1,11.5c0.2,4.6,0.6,8.6,1.3,11.9c-0.6-0.1-1.1-0.1-1.5-0.1c-0.9-5.6-1.7-10-2.3-13.1
		c-0.5-2.5-1.2-5.3-2.2-8.5C177.2,158.9,178.7,158.4,179.4,158.1z M179.3,188.6c-0.4,0-0.8-0.2-1.1-0.7c-0.3-0.5-0.5-0.9-0.6-1.2
		c-0.1-0.6,0.2-1.3,0.9-1.9s1.4-1.1,2.1-1.2c2.4-0.5,3.8,0.6,4.3,3.2c0.2,0.8,0,1.6-0.5,2.2c-0.5,0.6-1.2,1-2,1.1
		c-0.5,0.1-1.1-0.1-1.6-0.7c-0.5-0.5-0.8-1.2-1-1.9c-0.1-0.4,0-0.8,0.1-1.1c0.2-0.3,0.4-0.5,0.7-0.5c1-0.2,1.6,0.4,1.8,1.7
		c-0.2,0-0.4-0.1-0.7-0.3c-0.3-0.2-0.5-0.2-0.7-0.2c-0.2,0-0.3,0.1-0.4,0.3c-0.1,0.2-0.1,0.3-0.1,0.5c0.1,0.5,0.6,0.7,1.5,0.5
		c1.1-0.2,1.6-0.9,1.4-1.9c-0.1-0.6-0.5-1.1-1.3-1.5c-0.7-0.4-1.4-0.5-2.1-0.4c-0.5,0.1-0.9,0.5-1.2,1.1c-0.3,0.6-0.4,1.3-0.2,1.9
		C178.8,188,179,188.4,179.3,188.6z"/>
	<path d="M189.7,156.1c-0.1,3-0.1,6.8,0.1,11.5c0.2,4.6,0.6,8.6,1.3,11.9c-0.6-0.1-1.1-0.1-1.5-0.1c-0.9-5.6-1.7-10-2.3-13.1
		c-0.5-2.5-1.2-5.3-2.2-8.5C187.5,156.9,189,156.4,189.7,156.1z M189.5,186.7c-0.4,0-0.8-0.2-1.1-0.7s-0.5-0.9-0.6-1.2
		c-0.1-0.6,0.2-1.3,0.9-1.9s1.4-1.1,2.1-1.2c2.4-0.5,3.8,0.6,4.3,3.2c0.2,0.8,0,1.6-0.5,2.2c-0.5,0.6-1.2,1-2,1.2
		c-0.5,0.1-1.1-0.1-1.6-0.7c-0.5-0.5-0.8-1.2-1-1.9c-0.1-0.4,0-0.8,0.1-1.1s0.4-0.5,0.7-0.5c1-0.2,1.6,0.4,1.8,1.7
		c-0.2,0-0.4-0.1-0.7-0.3c-0.3-0.2-0.5-0.2-0.7-0.2c-0.2,0-0.3,0.1-0.4,0.3c-0.1,0.2-0.1,0.3-0.1,0.5c0.1,0.5,0.6,0.7,1.5,0.5
		c1.1-0.2,1.6-0.9,1.4-1.9c-0.1-0.6-0.5-1.1-1.3-1.5c-0.7-0.4-1.4-0.5-2.1-0.4c-0.5,0.1-0.9,0.5-1.2,1.1c-0.3,0.6-0.4,1.3-0.2,1.9
		C189.1,186,189.3,186.4,189.5,186.7z"/>
</g>
</svg>
